<svg xmlns="http://www.w3.org/2000/svg" width="25" height="34" fill="none" viewBox="0 0 25 34"><path fill="#0E7CF8" d="M21.875 4.16667H16.6667C16.6667 1.86849 14.7982 0 12.5 0C10.2018 0 8.33333 1.86849 8.33333 4.16667H3.125C1.39974 4.16667 0 5.56641 0 7.29167V30.2083C0 31.9336 1.39974 33.3333 3.125 33.3333H21.875C23.6003 33.3333 25 31.9336 25 30.2083V7.29167C25 5.56641 23.6003 4.16667 21.875 4.16667ZM12.5 2.60417C13.3659 2.60417 14.0625 3.30078 14.0625 4.16667C14.0625 5.03255 13.3659 5.72917 12.5 5.72917C11.6341 5.72917 10.9375 5.03255 10.9375 4.16667C10.9375 3.30078 11.6341 2.60417 12.5 2.60417ZM20.3906 17.6953L11.0807 26.9271C10.7747 27.2331 10.2799 27.2266 9.97396 26.9206L4.59635 21.4974C4.29036 21.1914 4.29687 20.6966 4.60286 20.3906L6.45182 18.5547C6.75781 18.2487 7.2526 18.2552 7.55859 18.5612L10.5534 21.582L17.4544 14.7331C17.7604 14.4271 18.2552 14.4336 18.5612 14.7396L20.3971 16.5885C20.7031 16.901 20.6966 17.3893 20.3906 17.6953Z"/></svg>